<mxfile host="app.diagrams.net" modified="2024-05-01T12:37:19.635Z" agent="Mozilla/5.0 (X11; Linux x86_64) AppleWebKit/537.36 (KHTML, like Gecko) Chrome/123.0.0.0 Safari/537.36" etag="ipfqzUeOWpL2Qr3PIZ-D" version="24.3.1" type="device">
  <diagram name="PÃ¡gina-1" id="1P66Ixd4ce6rLzSEKsLa">
    <mxGraphModel dx="800" dy="403" grid="1" gridSize="10" guides="1" tooltips="1" connect="1" arrows="1" fold="1" page="1" pageScale="1" pageWidth="827" pageHeight="1169" math="0" shadow="0">
      <root>
        <mxCell id="0" />
        <mxCell id="1" parent="0" />
        <mxCell id="DfN0TE37fLnI3lQpXsve-1" value="Tiers" style="swimlane;childLayout=stackLayout;resizeParent=1;resizeParentMax=0;horizontal=1;startSize=40;horizontalStack=0;html=1;" vertex="1" parent="1">
          <mxGeometry x="164" width="500" height="480" as="geometry" />
        </mxCell>
        <mxCell id="DfN0TE37fLnI3lQpXsve-2" value="Tier 1" style="swimlane;startSize=20;horizontal=0;html=1;" vertex="1" parent="DfN0TE37fLnI3lQpXsve-1">
          <mxGeometry y="40" width="500" height="160" as="geometry" />
        </mxCell>
        <mxCell id="DfN0TE37fLnI3lQpXsve-11" style="edgeStyle=orthogonalEdgeStyle;rounded=0;orthogonalLoop=1;jettySize=auto;html=1;entryX=0.5;entryY=0;entryDx=0;entryDy=0;" edge="1" parent="DfN0TE37fLnI3lQpXsve-2" source="DfN0TE37fLnI3lQpXsve-6" target="DfN0TE37fLnI3lQpXsve-7">
          <mxGeometry relative="1" as="geometry" />
        </mxCell>
        <mxCell id="DfN0TE37fLnI3lQpXsve-12" style="edgeStyle=orthogonalEdgeStyle;rounded=0;orthogonalLoop=1;jettySize=auto;html=1;" edge="1" parent="DfN0TE37fLnI3lQpXsve-2" source="DfN0TE37fLnI3lQpXsve-6" target="DfN0TE37fLnI3lQpXsve-9">
          <mxGeometry relative="1" as="geometry" />
        </mxCell>
        <mxCell id="DfN0TE37fLnI3lQpXsve-14" style="edgeStyle=orthogonalEdgeStyle;rounded=0;orthogonalLoop=1;jettySize=auto;html=1;" edge="1" parent="DfN0TE37fLnI3lQpXsve-2" source="DfN0TE37fLnI3lQpXsve-6" target="DfN0TE37fLnI3lQpXsve-13">
          <mxGeometry relative="1" as="geometry" />
        </mxCell>
        <mxCell id="DfN0TE37fLnI3lQpXsve-6" value="Basic drill" style="shape=hexagon;perimeter=hexagonPerimeter2;whiteSpace=wrap;html=1;fixedSize=1;" vertex="1" parent="DfN0TE37fLnI3lQpXsve-2">
          <mxGeometry x="200" y="10" width="76" height="40" as="geometry" />
        </mxCell>
        <mxCell id="DfN0TE37fLnI3lQpXsve-7" value="Chromium" style="rounded=1;whiteSpace=wrap;html=1;" vertex="1" parent="DfN0TE37fLnI3lQpXsve-2">
          <mxGeometry x="76" y="60" width="84" height="40" as="geometry" />
        </mxCell>
        <mxCell id="DfN0TE37fLnI3lQpXsve-9" value="Iron" style="rounded=1;whiteSpace=wrap;html=1;strokeColor=default;align=center;verticalAlign=middle;fontFamily=Helvetica;fontSize=12;fontColor=default;fillColor=default;" vertex="1" parent="DfN0TE37fLnI3lQpXsve-2">
          <mxGeometry x="196" y="60" width="84" height="40" as="geometry" />
        </mxCell>
        <mxCell id="DfN0TE37fLnI3lQpXsve-13" value="Manganese" style="rounded=1;whiteSpace=wrap;html=1;" vertex="1" parent="DfN0TE37fLnI3lQpXsve-2">
          <mxGeometry x="316" y="60" width="84" height="40" as="geometry" />
        </mxCell>
        <mxCell id="DfN0TE37fLnI3lQpXsve-3" value="Tier 2" style="swimlane;startSize=20;horizontal=0;html=1;" vertex="1" parent="DfN0TE37fLnI3lQpXsve-1">
          <mxGeometry y="200" width="500" height="160" as="geometry" />
        </mxCell>
        <mxCell id="DfN0TE37fLnI3lQpXsve-15" value="Vanadium" style="rounded=1;whiteSpace=wrap;html=1;" vertex="1" parent="DfN0TE37fLnI3lQpXsve-3">
          <mxGeometry x="176" y="60" width="84" height="40" as="geometry" />
        </mxCell>
        <mxCell id="DfN0TE37fLnI3lQpXsve-16" value="Liquid stractor" style="shape=hexagon;perimeter=hexagonPerimeter2;whiteSpace=wrap;html=1;fixedSize=1;" vertex="1" parent="DfN0TE37fLnI3lQpXsve-3">
          <mxGeometry x="36" y="10" width="94" height="40" as="geometry" />
        </mxCell>
        <mxCell id="DfN0TE37fLnI3lQpXsve-4" value="Tier 3" style="swimlane;startSize=20;horizontal=0;html=1;" vertex="1" parent="DfN0TE37fLnI3lQpXsve-1">
          <mxGeometry y="360" width="500" height="120" as="geometry" />
        </mxCell>
      </root>
    </mxGraphModel>
  </diagram>
</mxfile>
